<svg xmlns="http://www.w3.org/2000/svg" width="1024" height="1024" fill="none"><path fill="#191919" d="M0 0h1024v1024H0z"/><path fill="#EFEFEF" d="M290.903 265.453h441.195v493.54H290.903z"/><rect width="86.228" height="86.228" x="288" y="265.972" fill="#EFEFEF" rx="7" transform="rotate(-45 288 265.972)"/><rect width="86.228" height="86.228" x="518.296" y="265.972" fill="#EFEFEF" rx="7" transform="rotate(135 518.296 265.972)"/><rect width="86.228" height="86.228" x="504.704" y="265.972" fill="#EFEFEF" rx="7" transform="rotate(-45 504.704 265.972)"/><rect width="86.228" height="86.228" x="735" y="265.973" fill="#EFEFEF" rx="7" transform="rotate(135 735 265.973)"/><rect width="86.228" height="86.228" x="288" y="758.833" fill="#EFEFEF" rx="7" transform="rotate(-45 288 758.833)"/><rect width="86.228" height="86.228" x="518.296" y="758.833" fill="#EFEFEF" rx="7" transform="rotate(135 518.296 758.833)"/><rect width="86.228" height="86.228" x="504.704" y="758.833" fill="#EFEFEF" rx="7" transform="rotate(-45 504.704 758.833)"/><rect width="86.228" height="86.228" x="735" y="758.834" fill="#EFEFEF" rx="7" transform="rotate(135 735 758.834)"/><path fill="#191919" fill-rule="evenodd" d="M362.138 405.38c0-8.653 7.014-15.667 15.667-15.667h270.733c8.652 0 15.667 7.014 15.667 15.667 0 8.652-7.015 15.667-15.667 15.667H377.805c-8.653 0-15.667-7.015-15.667-15.667ZM362.138 519.021c0-8.653 7.014-15.667 15.667-15.667h270.733c8.652 0 15.667 7.014 15.667 15.667 0 8.653-7.015 15.667-15.667 15.667H377.805c-8.653 0-15.667-7.014-15.667-15.667ZM362.138 632.662c0-8.653 7.014-15.667 15.667-15.667h270.733c8.652 0 15.667 7.014 15.667 15.667 0 8.652-7.015 15.666-15.667 15.666H377.805c-8.653 0-15.667-7.014-15.667-15.666Z" clip-rule="evenodd"/></svg>