<svg width="22" height="34" viewBox="0 0 22 34" fill="none" xmlns="http://www.w3.org/2000/svg">
<path fill-rule="evenodd" clip-rule="evenodd" d="M3.29291 0.792889C3.48045 0.605353 3.7348 0.499997 4.00002 0.5L11.25 0.500078L12 0.500086L18.5 0.5C18.7652 0.499997 19.0196 0.605353 19.2071 0.792889C19.3946 0.980426 19.5 1.23478 19.5 1.5V5.49986C19.5 6.05213 19.0523 6.49983 18.5 6.49986L17.5027 6.4999V18.1431L21.7741 23.3668C22.0187 23.6659 22.0691 24.0791 21.9036 24.4282C21.7381 24.7773 21.3863 24.9998 21 24.9998L13 24.9998V28.9999V32.4999C13 33.3283 12.3284 33.9999 11.5 33.9999C10.6716 33.9999 9.99998 33.3283 9.99998 32.4999V28.9999V24.9998L1.50002 24.9998C1.11368 24.9998 0.761895 24.7773 0.596403 24.4282C0.43091 24.0791 0.481315 23.6659 0.725875 23.3668L4.99732 18.1431V6.4999L3.99997 6.49986C3.4477 6.49983 3.00001 6.05213 3.00001 5.49986V1.5C3.00001 1.23478 3.10537 0.980426 3.29291 0.792889Z" fill="#757575"/>
</svg>
